<svg width="277" height="202" viewBox="0 0 277 202" version="1.1" xmlns="http://www.w3.org/2000/svg" xmlns:xlink="http://www.w3.org/1999/xlink">
<g id="Canvas" transform="translate(-2192 -927)">
<g id="Vector">
<use xlink:href="#path0_fill" transform="translate(2193 928)" fill="#E0E6ED"/>
<use xlink:href="#path1_stroke" transform="translate(2193 928)" fill="#E0E6ED"/>
</g>
<g id="Vector">
<use xlink:href="#path2_fill" transform="matrix(-1 0 0 1 2468 929)" fill="#FFFFFF"/>
<use xlink:href="#path3_stroke" transform="matrix(-1 0 0 1 2468 929)" fill="#E0E6ED"/>
</g>
</g>
<defs>
<path id="path0_fill" d="M 87.5 0C 39.175 0 0 36.2731 0 81.0185C 0 106.515 12.7239 129.257 32.6087 144.109L 32.6087 175L 62.4016 158.649C 70.3527 160.849 78.7761 162.037 87.5 162.037C 135.825 162.037 175 125.764 175 81.0185C 175 36.2731 135.825 0 87.5 0Z"/>
<path id="path1_stroke" d="M 32.6087 144.109L 33.6087 144.109C 33.6087 143.793 33.4598 143.496 33.2071 143.308L 32.6087 144.109ZM 32.6087 175L 31.6087 175C 31.6087 175.353 31.7952 175.681 32.0993 175.861C 32.4035 176.041 32.78 176.047 33.0898 175.877L 32.6087 175ZM 62.4016 158.649L 62.6684 157.685C 62.4172 157.616 62.1489 157.647 61.9205 157.772L 62.4016 158.649ZM 87.5 -1C 38.6966 -1 -1 35.6497 -1 81.0185L 1 81.0185C 1 36.8964 39.6534 1 87.5 1L 87.5 -1ZM -1 81.0185C -1 106.862 11.8987 129.889 32.0103 144.91L 33.2071 143.308C 13.5491 128.626 1 106.169 1 81.0185L -1 81.0185ZM 31.6087 144.109L 31.6087 175L 33.6087 175L 33.6087 144.109L 31.6087 144.109ZM 33.0898 175.877L 62.8828 159.525L 61.9205 157.772L 32.1276 174.123L 33.0898 175.877ZM 62.1349 159.613C 70.1491 161.828 78.7061 163.035 87.5 163.037L 87.5 161.037C 78.8461 161.039 70.5563 159.87 62.6684 157.685L 62.1349 159.613ZM 87.5 163.037C 136.303 163.037 176 126.387 176 81.0185L 174 81.0185C 174 125.141 135.347 161.037 87.5 161.037L 87.5 163.037ZM 176 81.0185C 176 35.6497 136.303 -1 87.5 -1L 87.5 1C 135.347 1 174 36.8964 174 81.0185L 176 81.0185Z"/>
<path id="path2_fill" d="M 99.5 0C 44.5476 0 0 41.2477 0 92.1296C 0 121.123 14.4689 146.984 37.0807 163.872L 37.0807 199L 70.9596 180.406C 80.0011 182.909 89.5797 184.259 99.5 184.259C 154.452 184.259 199 143.012 199 92.1296C 199 41.2477 154.452 0 99.5 0Z"/>
<path id="path3_stroke" d="M 37.0807 163.872L 38.0807 163.872C 38.0807 163.557 37.9319 163.26 37.6791 163.071L 37.0807 163.872ZM 37.0807 199L 36.0807 199C 36.0807 199.353 36.2673 199.681 36.5714 199.861C 36.8755 200.041 37.2521 200.047 37.5619 199.877L 37.0807 199ZM 70.9596 180.406L 71.2263 179.443C 70.9752 179.373 70.7068 179.404 70.4784 179.53L 70.9596 180.406ZM 99.5 -1C 44.0692 -1 -1 40.6243 -1 92.1296L 1 92.1296C 1 41.871 45.026 1 99.5 1L 99.5 -1ZM -1 92.1296C -1 121.469 13.6437 147.616 36.4824 164.673L 37.6791 163.071C 15.2941 146.352 1 120.776 1 92.1296L -1 92.1296ZM 36.0807 163.872L 36.0807 199L 38.0807 199L 38.0807 163.872L 36.0807 163.872ZM 37.5619 199.877L 71.4407 181.283L 70.4784 179.53L 36.5996 198.123L 37.5619 199.877ZM 70.6928 181.37C 79.7975 183.888 89.5097 185.257 99.5 185.259L 99.5 183.259C 89.6497 183.262 80.2047 181.93 71.2263 179.443L 70.6928 181.37ZM 99.5 185.259C 154.931 185.259 200 143.635 200 92.1296L 198 92.1296C 198 142.388 153.974 183.259 99.5 183.259L 99.5 185.259ZM 200 92.1296C 200 40.6243 154.931 -1 99.5 -1L 99.5 1C 153.974 1 198 41.871 198 92.1296L 200 92.1296Z"/>
</defs>
</svg>
